# WordVista 3D - Ancient Column Model
o AncientColumn
# Base plinth
v -1.0 0.0 -1.0
v  1.0 0.0 -1.0
v  1.0 0.0  1.0
v -1.0 0.0  1.0
v -0.8 0.4 -0.8
v  0.8 0.4 -0.8
v  0.8 0.4  0.8
v -0.8 0.4  0.8

# Shaft
v -0.6 4.0 -0.6
v  0.6 4.0 -0.6
v  0.6 4.0  0.6
v -0.6 4.0  0.6

# Capital
v -1.1 4.6 -1.1
v  1.1 4.6 -1.1
v  1.1 4.6  1.1
v -1.1 4.6  1.1

# Faces Plinth
f 1 2 6 5
f 2 3 7 6
f 3 4 8 7
f 4 1 5 8
f 1 4 3 2

# Shaft faces
f 5 6 10 9
f 6 7 11 10
f 7 8 12 11
f 8 5 9 12

# Capital faces
f 9 10 14 13
f 10 11 15 14
f 11 12 16 15
f 12 9 13 16
f 13 14 15 16
