# WordVista 3D - Stone Bridge Model
o StoneBridge
# Base piers & arch
v -4.0 0.0 -1.5
v -4.0 0.0  1.5
v -2.5 0.0  1.5
v -2.5 0.0 -1.5
v  2.5 0.0 -1.5
v  2.5 0.0  1.5
v  4.0 0.0  1.5
v  4.0 0.0 -1.5

# Arch apex underside
v -1.5 1.0 -1.5
v -1.5 1.0  1.5
v  1.5 1.0  1.5
v  1.5 1.0 -1.5

# Deck roadway
v -4.2 1.2 -1.4
v -4.2 1.2  1.4
v -2.0 1.8  1.4
v -2.0 1.8 -1.4
v  0.0 2.1 -1.4
v  0.0 2.1  1.4
v  2.0 1.8  1.4
v  2.0 1.8 -1.4
v  4.2 1.2  1.4
v  4.2 1.2 -1.4

# Railing Left (+Z)
v -4.2 2.0  1.4
v  0.0 2.8  1.4
v  4.2 2.0  1.4

# Railing Right (-Z)
v -4.2 2.0 -1.4
v  0.0 2.8 -1.4
v  4.2 2.0 -1.4

# Faces deck
f 13 14 15 16
f 16 15 18 17
f 17 18 19 20
f 20 19 21 22

# Under arch
f 9 10 11 12
f 4 3 10 9
f 12 11 6 5

# Railings
f 14 23 24 18
f 18 24 25 21
f 13 17 27 26
f 17 22 28 27
