# WordVista 3D - Stylized Tree Model
o StylizedTree
# Trunk vertices
v -0.3 0.0 -0.3
v  0.3 0.0 -0.3
v  0.3 0.0  0.3
v -0.3 0.0  0.3
v -0.2 2.2 -0.2
v  0.2 2.2 -0.2
v  0.2 2.2  0.2
v -0.2 2.2  0.2
# Canopy Layer 1 (Lower)
v -1.8 1.8 -1.8
v  1.8 1.8 -1.8
v  1.8 1.8  1.8
v -1.8 1.8  1.8
v -1.2 3.2 -1.2
v  1.2 3.2 -1.2
v  1.2 3.2  1.2
v -1.2 3.2  1.2
# Canopy Layer 2 (Middle)
v -1.4 3.0 -1.4
v  1.4 3.0 -1.4
v  1.4 3.0  1.4
v -1.4 3.0  1.4
v -0.8 4.2 -0.8
v  0.8 4.2 -0.8
v  0.8 4.2  0.8
v -0.8 4.2  0.8
# Canopy Layer 3 (Top Tip)
v -0.9 4.0 -0.9
v  0.9 4.0 -0.9
v  0.9 4.0  0.9
v -0.9 4.0  0.9
v  0.0 5.4  0.0

# Trunk faces
f 1 2 6 5
f 2 3 7 6
f 3 4 8 7
f 4 1 5 8
f 1 4 3 2

# Canopy 1 faces
f 9 10 14 13
f 10 11 15 14
f 11 12 16 15
f 12 9 13 16
f 13 14 15 16
f 9 12 11 10

# Canopy 2 faces
f 17 18 22 21
f 18 19 23 22
f 19 20 24 23
f 20 17 21 24
f 21 22 23 24
f 17 20 19 18

# Canopy 3 Top pyramid
f 25 26 29
f 26 27 29
f 27 28 29
f 28 25 29
f 25 28 27 26
